<?xml version="1.0" encoding="utf-8"?>
<!-- Generator: Adobe Illustrator 16.0.0, SVG Export Plug-In . SVG Version: 6.00 Build 0)  -->
<!DOCTYPE svg PUBLIC "-//W3C//DTD SVG 1.1//EN" "http://www.w3.org/Graphics/SVG/1.1/DTD/svg11.dtd" [
	<!ENTITY ns_extend "http://ns.adobe.com/Extensibility/1.0/">
	<!ENTITY ns_ai "http://ns.adobe.com/AdobeIllustrator/10.0/">
	<!ENTITY ns_graphs "http://ns.adobe.com/Graphs/1.0/">
	<!ENTITY ns_vars "http://ns.adobe.com/Variables/1.0/">
	<!ENTITY ns_imrep "http://ns.adobe.com/ImageReplacement/1.0/">
	<!ENTITY ns_sfw "http://ns.adobe.com/SaveForWeb/1.0/">
	<!ENTITY ns_custom "http://ns.adobe.com/GenericCustomNamespace/1.0/">
	<!ENTITY ns_adobe_xpath "http://ns.adobe.com/XPath/1.0/">
]>
<svg version="1.1" id="Capa_1" xmlns:x="&ns_extend;" xmlns:i="&ns_ai;" xmlns:graph="&ns_graphs;"
	 xmlns="http://www.w3.org/2000/svg" xmlns:xlink="http://www.w3.org/1999/xlink" x="0px" y="0px" width="296.303px"
	 height="430.114px" viewBox="66.905 0 296.303 430.114" enable-background="new 66.905 0 296.303 430.114" xml:space="preserve">
<metadata>
	<sfw  xmlns="&ns_sfw;">
		<slices></slices>
		<sliceSourceBounds  width="296.303" height="430.114" bottomLeftOrigin="true" y="205.443" x="149.348"></sliceSourceBounds>
	</sfw>
</metadata>
<g>
	<path id="Facebook_Places" fill="#FFFFFF" d="M356.207,107.051c-1.53-5.738-4.64-11.852-6.939-17.205
		C321.745,23.704,261.611,0,213.055,0C148.054,0,76.463,43.586,66.905,133.427v18.355c0,0.766,0.265,7.647,0.64,11.089
		c5.357,42.816,39.143,88.32,64.375,131.135c27.146,45.873,55.313,91,83.221,136.107c17.208-29.438,34.354-59.26,51.17-87.934
		c4.583-8.415,9.903-16.825,14.491-24.857c3.058-5.348,8.9-10.695,11.569-15.672c27.145-49.699,70.837-99.782,70.837-149.104
		v-20.262C363.209,126.938,356.58,108.204,356.207,107.051z M214.245,199.193c-19.107,0-40.021-9.554-50.345-35.939
		c-1.538-4.2-1.414-12.617-1.414-13.388v-11.852c0-33.636,28.561-48.932,53.406-48.932c30.588,0,54.245,24.472,54.245,55.06
		C270.138,174.729,244.833,199.193,214.245,199.193z"/>
</g>
</svg>
