<?xml version="1.0" encoding="utf-8"?>
<!-- Generator: Adobe Illustrator 16.0.0, SVG Export Plug-In . SVG Version: 6.00 Build 0)  -->
<!DOCTYPE svg PUBLIC "-//W3C//DTD SVG 1.1//EN" "http://www.w3.org/Graphics/SVG/1.1/DTD/svg11.dtd" [
	<!ENTITY ns_extend "http://ns.adobe.com/Extensibility/1.0/">
	<!ENTITY ns_ai "http://ns.adobe.com/AdobeIllustrator/10.0/">
	<!ENTITY ns_graphs "http://ns.adobe.com/Graphs/1.0/">
	<!ENTITY ns_vars "http://ns.adobe.com/Variables/1.0/">
	<!ENTITY ns_imrep "http://ns.adobe.com/ImageReplacement/1.0/">
	<!ENTITY ns_sfw "http://ns.adobe.com/SaveForWeb/1.0/">
	<!ENTITY ns_custom "http://ns.adobe.com/GenericCustomNamespace/1.0/">
	<!ENTITY ns_adobe_xpath "http://ns.adobe.com/XPath/1.0/">
]>
<svg version="1.1" id="Capa_1" xmlns:x="&ns_extend;" xmlns:i="&ns_ai;" xmlns:graph="&ns_graphs;"
	 xmlns="http://www.w3.org/2000/svg" xmlns:xlink="http://www.w3.org/1999/xlink" x="0px" y="0px" width="612px" height="612px"
	 viewBox="0 0 612 612" enable-background="new 0 0 612 612" xml:space="preserve">
<metadata>
	<sfw  xmlns="&ns_sfw;">
		<slices></slices>
		<sliceSourceBounds  width="612" height="611.663" bottomLeftOrigin="true" y="-93.331" x="-8.5"></sliceSourceBounds>
	</sfw>
</metadata>
<g>
	<g>
		<path d="M587.572,186.881c-32.266-75.226-87.096-129.935-162.949-162.285C386.711,8.427,346.992,0.168,305.497,0.168
			c-41.488,0-80.914,8.181-118.784,24.428C111.488,56.861,56.415,111.535,24.092,186.881C7.895,224.629,0,264.176,0,305.664
			c0,41.495,7.895,81.37,24.092,119.127c32.323,75.346,87.403,130.348,162.621,162.62c37.877,16.247,77.295,24.42,118.784,24.42
			c41.488,0,81.214-8.259,119.119-24.42C500.47,555.06,555.3,500.009,587.573,424.79C603.819,386.913,612,347.159,612,305.664
			C612,264.176,603.825,224.757,587.572,186.881z M538.724,440.853c-24.021,41.195-56.929,73.876-98.375,98.039
			c-41.195,24.021-86.332,36.135-134.845,36.135c-36.47,0-71.271-7.023-104.4-21.415c-33.129-14.384-61.732-33.294-85.661-57.215
			C91.515,472.469,72.47,443.586,58.229,410.4c-14.199-33.064-21.08-68.258-21.08-104.734c0-48.521,11.921-93.429,35.808-134.51
			c23.971-41.23,56.886-73.946,98.039-98.04c41.146-24.092,85.989-36.142,134.502-36.142c48.52,0,93.648,12.121,134.845,36.142
			c41.445,24.164,74.283,56.88,98.375,98.039c24.092,41.153,36.135,85.99,36.135,134.51
			C574.852,354.185,562.888,399.399,538.724,440.853z"/>
		<path d="M324.906,302.988V129.659c0-10.372-9.036-18.738-19.409-18.738c-9.701,0-18.403,8.366-18.403,18.738v176.005
			c0,0.336,0.671,1.678,0.671,2.678c-0.671,6.023,1.007,11.043,5.02,15.062l100.053,100.046c6.694,6.695,19.072,6.695,25.763,0
			c7.694-7.694,7.188-18.859,0-26.099L324.906,302.988z"/>
	</g>
</g>
</svg>
